<mxfile host="Electron" modified="2023-09-30T08:00:11.721Z" agent="Mozilla/5.0 (Windows NT 10.0; Win64; x64) AppleWebKit/537.36 (KHTML, like Gecko) draw.io/21.7.5 Chrome/114.0.5735.289 Electron/25.8.1 Safari/537.36" etag="hK7ri7pA1hdI7WfCRGPh" version="21.7.5" type="device">
  <diagram name="Page-1" id="gDGfw3LgAzAPcX-htzk-">
    <mxGraphModel dx="1925" dy="988" grid="1" gridSize="10" guides="1" tooltips="1" connect="1" arrows="1" fold="1" page="1" pageScale="1" pageWidth="827" pageHeight="1169" math="0" shadow="0">
      <root>
        <mxCell id="0" />
        <mxCell id="1" parent="0" />
        <mxCell id="qTDeloOCW2t7TZ8c1QXG-1" value="h" style="whiteSpace=wrap;html=1;aspect=fixed;fontSize=15;fontStyle=0;fillColor=#d5e8d4;strokeColor=#82b366;" vertex="1" parent="1">
          <mxGeometry x="80" y="240" width="40" height="40" as="geometry" />
        </mxCell>
        <mxCell id="qTDeloOCW2t7TZ8c1QXG-2" value="e" style="whiteSpace=wrap;html=1;aspect=fixed;fontSize=15;fontStyle=0;fillColor=#d5e8d4;strokeColor=#82b366;" vertex="1" parent="1">
          <mxGeometry x="130" y="240" width="40" height="40" as="geometry" />
        </mxCell>
        <mxCell id="qTDeloOCW2t7TZ8c1QXG-3" value="l" style="whiteSpace=wrap;html=1;aspect=fixed;fontSize=15;fontStyle=0;fillColor=#d5e8d4;strokeColor=#82b366;" vertex="1" parent="1">
          <mxGeometry x="180" y="240" width="40" height="40" as="geometry" />
        </mxCell>
        <mxCell id="qTDeloOCW2t7TZ8c1QXG-4" value="l" style="whiteSpace=wrap;html=1;aspect=fixed;fontSize=15;fontStyle=0;fillColor=#d5e8d4;strokeColor=#82b366;" vertex="1" parent="1">
          <mxGeometry x="230" y="240" width="40" height="40" as="geometry" />
        </mxCell>
        <mxCell id="qTDeloOCW2t7TZ8c1QXG-5" value="o" style="whiteSpace=wrap;html=1;aspect=fixed;fontSize=15;fontStyle=0;fillColor=#d5e8d4;strokeColor=#82b366;" vertex="1" parent="1">
          <mxGeometry x="280" y="240" width="40" height="40" as="geometry" />
        </mxCell>
        <mxCell id="qTDeloOCW2t7TZ8c1QXG-6" value="&amp;nbsp;" style="whiteSpace=wrap;html=1;aspect=fixed;fontSize=15;fontStyle=0;fillColor=#d5e8d4;strokeColor=#82b366;" vertex="1" parent="1">
          <mxGeometry x="330" y="240" width="40" height="40" as="geometry" />
        </mxCell>
        <mxCell id="qTDeloOCW2t7TZ8c1QXG-7" value="w" style="whiteSpace=wrap;html=1;aspect=fixed;fontSize=15;fontStyle=0;fillColor=#d5e8d4;strokeColor=#82b366;" vertex="1" parent="1">
          <mxGeometry x="380" y="240" width="40" height="40" as="geometry" />
        </mxCell>
        <mxCell id="qTDeloOCW2t7TZ8c1QXG-8" value="o" style="whiteSpace=wrap;html=1;aspect=fixed;fontSize=15;fontStyle=0;fillColor=#d5e8d4;strokeColor=#82b366;" vertex="1" parent="1">
          <mxGeometry x="430" y="240" width="40" height="40" as="geometry" />
        </mxCell>
        <mxCell id="qTDeloOCW2t7TZ8c1QXG-9" value="r" style="whiteSpace=wrap;html=1;aspect=fixed;fontSize=15;fontStyle=0;fillColor=#d5e8d4;strokeColor=#82b366;" vertex="1" parent="1">
          <mxGeometry x="480" y="240" width="40" height="40" as="geometry" />
        </mxCell>
        <mxCell id="qTDeloOCW2t7TZ8c1QXG-10" value="l" style="whiteSpace=wrap;html=1;aspect=fixed;fontSize=15;fontStyle=0;fillColor=#d5e8d4;strokeColor=#82b366;" vertex="1" parent="1">
          <mxGeometry x="530" y="240" width="40" height="40" as="geometry" />
        </mxCell>
        <mxCell id="qTDeloOCW2t7TZ8c1QXG-11" value="d" style="whiteSpace=wrap;html=1;aspect=fixed;fontSize=15;fontStyle=0;fillColor=#d5e8d4;strokeColor=#82b366;" vertex="1" parent="1">
          <mxGeometry x="580" y="240" width="40" height="40" as="geometry" />
        </mxCell>
        <mxCell id="qTDeloOCW2t7TZ8c1QXG-14" value="Element" style="text;html=1;strokeColor=none;fillColor=none;align=center;verticalAlign=middle;whiteSpace=wrap;rounded=0;fontStyle=1" vertex="1" parent="1">
          <mxGeometry x="-10" y="240" width="60" height="40" as="geometry" />
        </mxCell>
        <mxCell id="qTDeloOCW2t7TZ8c1QXG-15" value="Index" style="text;html=1;strokeColor=none;fillColor=none;align=center;verticalAlign=middle;whiteSpace=wrap;rounded=0;fontStyle=2" vertex="1" parent="1">
          <mxGeometry x="-10" y="280" width="60" height="40" as="geometry" />
        </mxCell>
        <mxCell id="qTDeloOCW2t7TZ8c1QXG-16" value="0" style="text;html=1;strokeColor=none;fillColor=none;align=center;verticalAlign=middle;whiteSpace=wrap;rounded=0;fontStyle=2" vertex="1" parent="1">
          <mxGeometry x="80" y="280" width="40" height="40" as="geometry" />
        </mxCell>
        <mxCell id="qTDeloOCW2t7TZ8c1QXG-17" value="1" style="text;html=1;strokeColor=none;fillColor=none;align=center;verticalAlign=middle;whiteSpace=wrap;rounded=0;fontStyle=2" vertex="1" parent="1">
          <mxGeometry x="130" y="280" width="40" height="40" as="geometry" />
        </mxCell>
        <mxCell id="qTDeloOCW2t7TZ8c1QXG-18" value="2" style="text;html=1;strokeColor=none;fillColor=none;align=center;verticalAlign=middle;whiteSpace=wrap;rounded=0;fontStyle=2" vertex="1" parent="1">
          <mxGeometry x="180" y="280" width="40" height="40" as="geometry" />
        </mxCell>
        <mxCell id="qTDeloOCW2t7TZ8c1QXG-19" value="3" style="text;html=1;strokeColor=none;fillColor=none;align=center;verticalAlign=middle;whiteSpace=wrap;rounded=0;fontStyle=2" vertex="1" parent="1">
          <mxGeometry x="230" y="280" width="40" height="40" as="geometry" />
        </mxCell>
        <mxCell id="qTDeloOCW2t7TZ8c1QXG-20" value="4" style="text;html=1;strokeColor=none;fillColor=none;align=center;verticalAlign=middle;whiteSpace=wrap;rounded=0;fontStyle=2" vertex="1" parent="1">
          <mxGeometry x="280" y="280" width="40" height="40" as="geometry" />
        </mxCell>
        <mxCell id="qTDeloOCW2t7TZ8c1QXG-21" value="5" style="text;html=1;strokeColor=none;fillColor=none;align=center;verticalAlign=middle;whiteSpace=wrap;rounded=0;fontStyle=2" vertex="1" parent="1">
          <mxGeometry x="330" y="280" width="40" height="40" as="geometry" />
        </mxCell>
        <mxCell id="qTDeloOCW2t7TZ8c1QXG-22" value="6" style="text;html=1;strokeColor=none;fillColor=none;align=center;verticalAlign=middle;whiteSpace=wrap;rounded=0;fontStyle=2" vertex="1" parent="1">
          <mxGeometry x="380" y="280" width="40" height="40" as="geometry" />
        </mxCell>
        <mxCell id="qTDeloOCW2t7TZ8c1QXG-23" value="7" style="text;html=1;strokeColor=none;fillColor=none;align=center;verticalAlign=middle;whiteSpace=wrap;rounded=0;fontStyle=2" vertex="1" parent="1">
          <mxGeometry x="430" y="280" width="40" height="40" as="geometry" />
        </mxCell>
        <mxCell id="qTDeloOCW2t7TZ8c1QXG-24" value="8" style="text;html=1;strokeColor=none;fillColor=none;align=center;verticalAlign=middle;whiteSpace=wrap;rounded=0;fontStyle=2" vertex="1" parent="1">
          <mxGeometry x="480" y="280" width="40" height="40" as="geometry" />
        </mxCell>
        <mxCell id="qTDeloOCW2t7TZ8c1QXG-25" value="9" style="text;html=1;strokeColor=none;fillColor=none;align=center;verticalAlign=middle;whiteSpace=wrap;rounded=0;fontStyle=2" vertex="1" parent="1">
          <mxGeometry x="530" y="280" width="40" height="40" as="geometry" />
        </mxCell>
        <mxCell id="qTDeloOCW2t7TZ8c1QXG-27" value="10" style="text;html=1;strokeColor=none;fillColor=none;align=center;verticalAlign=middle;whiteSpace=wrap;rounded=0;fontStyle=2" vertex="1" parent="1">
          <mxGeometry x="580" y="280" width="40" height="40" as="geometry" />
        </mxCell>
        <mxCell id="qTDeloOCW2t7TZ8c1QXG-28" value="h" style="whiteSpace=wrap;html=1;aspect=fixed;fontSize=15;fontStyle=0;fillColor=#d5e8d4;strokeColor=#82b366;" vertex="1" parent="1">
          <mxGeometry x="90" y="360" width="40" height="40" as="geometry" />
        </mxCell>
        <mxCell id="qTDeloOCW2t7TZ8c1QXG-29" value="e" style="whiteSpace=wrap;html=1;aspect=fixed;fontSize=15;fontStyle=0;fillColor=#d5e8d4;strokeColor=#82b366;" vertex="1" parent="1">
          <mxGeometry x="140" y="360" width="40" height="40" as="geometry" />
        </mxCell>
        <mxCell id="qTDeloOCW2t7TZ8c1QXG-30" value="l" style="whiteSpace=wrap;html=1;aspect=fixed;fontSize=15;fontStyle=0;fillColor=#d5e8d4;strokeColor=#82b366;" vertex="1" parent="1">
          <mxGeometry x="190" y="360" width="40" height="40" as="geometry" />
        </mxCell>
        <mxCell id="qTDeloOCW2t7TZ8c1QXG-31" value="l" style="whiteSpace=wrap;aspect=fixed;fontSize=15;fontStyle=0;fillColor=#f5f5f5;strokeColor=#666666;fontColor=#333333;opacity=40;textOpacity=40;" vertex="1" parent="1">
          <mxGeometry x="240" y="360" width="40" height="40" as="geometry" />
        </mxCell>
        <mxCell id="qTDeloOCW2t7TZ8c1QXG-32" value="o" style="whiteSpace=wrap;aspect=fixed;fontSize=15;fontStyle=0;fillColor=#f5f5f5;strokeColor=#666666;fontColor=#333333;opacity=40;textOpacity=40;" vertex="1" parent="1">
          <mxGeometry x="290" y="360" width="40" height="40" as="geometry" />
        </mxCell>
        <mxCell id="qTDeloOCW2t7TZ8c1QXG-33" value="Â " style="whiteSpace=wrap;aspect=fixed;fontSize=15;fontStyle=0;fillColor=#f5f5f5;strokeColor=#666666;fontColor=#333333;opacity=40;textOpacity=40;" vertex="1" parent="1">
          <mxGeometry x="340" y="360" width="40" height="40" as="geometry" />
        </mxCell>
        <mxCell id="qTDeloOCW2t7TZ8c1QXG-34" value="w" style="whiteSpace=wrap;aspect=fixed;fontSize=15;fontStyle=0;fillColor=#f5f5f5;strokeColor=#666666;fontColor=#333333;opacity=40;textOpacity=40;" vertex="1" parent="1">
          <mxGeometry x="390" y="360" width="40" height="40" as="geometry" />
        </mxCell>
        <mxCell id="qTDeloOCW2t7TZ8c1QXG-35" value="o" style="whiteSpace=wrap;aspect=fixed;fontSize=15;fontStyle=0;fillColor=#f5f5f5;strokeColor=#666666;fontColor=#333333;opacity=40;textOpacity=40;" vertex="1" parent="1">
          <mxGeometry x="440" y="360" width="40" height="40" as="geometry" />
        </mxCell>
        <mxCell id="qTDeloOCW2t7TZ8c1QXG-36" value="r" style="whiteSpace=wrap;aspect=fixed;fontSize=15;fontStyle=0;fillColor=#f5f5f5;strokeColor=#666666;fontColor=#333333;opacity=40;textOpacity=40;" vertex="1" parent="1">
          <mxGeometry x="490" y="360" width="40" height="40" as="geometry" />
        </mxCell>
        <mxCell id="qTDeloOCW2t7TZ8c1QXG-37" value="l" style="whiteSpace=wrap;aspect=fixed;fontSize=15;fontStyle=0;fillColor=#f5f5f5;strokeColor=#666666;fontColor=#333333;opacity=40;textOpacity=40;" vertex="1" parent="1">
          <mxGeometry x="540" y="360" width="40" height="40" as="geometry" />
        </mxCell>
        <mxCell id="qTDeloOCW2t7TZ8c1QXG-38" value="d" style="whiteSpace=wrap;aspect=fixed;fontSize=15;fontStyle=0;fillColor=#f5f5f5;strokeColor=#666666;fontColor=#333333;opacity=40;textOpacity=40;" vertex="1" parent="1">
          <mxGeometry x="590" y="360" width="40" height="40" as="geometry" />
        </mxCell>
        <mxCell id="qTDeloOCW2t7TZ8c1QXG-39" value="Element" style="text;html=1;strokeColor=none;fillColor=none;align=center;verticalAlign=middle;whiteSpace=wrap;rounded=0;fontStyle=1" vertex="1" parent="1">
          <mxGeometry y="360" width="60" height="40" as="geometry" />
        </mxCell>
        <mxCell id="qTDeloOCW2t7TZ8c1QXG-40" value="Index" style="text;html=1;strokeColor=none;fillColor=none;align=center;verticalAlign=middle;whiteSpace=wrap;rounded=0;fontStyle=2" vertex="1" parent="1">
          <mxGeometry y="400" width="60" height="40" as="geometry" />
        </mxCell>
        <mxCell id="qTDeloOCW2t7TZ8c1QXG-41" value="0" style="text;html=1;strokeColor=none;fillColor=none;align=center;verticalAlign=middle;whiteSpace=wrap;rounded=0;fontStyle=2" vertex="1" parent="1">
          <mxGeometry x="90" y="400" width="40" height="40" as="geometry" />
        </mxCell>
        <mxCell id="qTDeloOCW2t7TZ8c1QXG-42" value="1" style="text;html=1;strokeColor=none;fillColor=none;align=center;verticalAlign=middle;whiteSpace=wrap;rounded=0;fontStyle=2" vertex="1" parent="1">
          <mxGeometry x="140" y="400" width="40" height="40" as="geometry" />
        </mxCell>
        <mxCell id="qTDeloOCW2t7TZ8c1QXG-43" value="2" style="text;html=1;strokeColor=none;fillColor=none;align=center;verticalAlign=middle;whiteSpace=wrap;rounded=0;fontStyle=2" vertex="1" parent="1">
          <mxGeometry x="190" y="400" width="40" height="40" as="geometry" />
        </mxCell>
        <mxCell id="qTDeloOCW2t7TZ8c1QXG-44" value="3" style="text;strokeColor=none;fillColor=none;align=center;verticalAlign=middle;whiteSpace=wrap;rounded=0;fontStyle=2;opacity=40;textOpacity=40;" vertex="1" parent="1">
          <mxGeometry x="240" y="400" width="40" height="40" as="geometry" />
        </mxCell>
        <mxCell id="qTDeloOCW2t7TZ8c1QXG-45" value="4" style="text;strokeColor=none;fillColor=none;align=center;verticalAlign=middle;whiteSpace=wrap;rounded=0;fontStyle=2;opacity=40;textOpacity=40;" vertex="1" parent="1">
          <mxGeometry x="290" y="400" width="40" height="40" as="geometry" />
        </mxCell>
        <mxCell id="qTDeloOCW2t7TZ8c1QXG-46" value="5" style="text;strokeColor=none;fillColor=none;align=center;verticalAlign=middle;whiteSpace=wrap;rounded=0;fontStyle=2;opacity=40;textOpacity=40;" vertex="1" parent="1">
          <mxGeometry x="340" y="400" width="40" height="40" as="geometry" />
        </mxCell>
        <mxCell id="qTDeloOCW2t7TZ8c1QXG-47" value="6" style="text;strokeColor=none;fillColor=none;align=center;verticalAlign=middle;whiteSpace=wrap;rounded=0;fontStyle=2;opacity=40;textOpacity=40;" vertex="1" parent="1">
          <mxGeometry x="390" y="400" width="40" height="40" as="geometry" />
        </mxCell>
        <mxCell id="qTDeloOCW2t7TZ8c1QXG-48" value="7" style="text;strokeColor=none;fillColor=none;align=center;verticalAlign=middle;whiteSpace=wrap;rounded=0;fontStyle=2;opacity=40;textOpacity=40;" vertex="1" parent="1">
          <mxGeometry x="440" y="400" width="40" height="40" as="geometry" />
        </mxCell>
        <mxCell id="qTDeloOCW2t7TZ8c1QXG-49" value="8" style="text;strokeColor=none;fillColor=none;align=center;verticalAlign=middle;whiteSpace=wrap;rounded=0;fontStyle=2;opacity=40;textOpacity=40;" vertex="1" parent="1">
          <mxGeometry x="490" y="400" width="40" height="40" as="geometry" />
        </mxCell>
        <mxCell id="qTDeloOCW2t7TZ8c1QXG-50" value="9" style="text;strokeColor=none;fillColor=none;align=center;verticalAlign=middle;whiteSpace=wrap;rounded=0;fontStyle=2;opacity=40;textOpacity=40;" vertex="1" parent="1">
          <mxGeometry x="540" y="400" width="40" height="40" as="geometry" />
        </mxCell>
        <mxCell id="qTDeloOCW2t7TZ8c1QXG-51" value="10" style="text;strokeColor=none;fillColor=none;align=center;verticalAlign=middle;whiteSpace=wrap;rounded=0;fontStyle=2;opacity=40;textOpacity=40;" vertex="1" parent="1">
          <mxGeometry x="590" y="400" width="40" height="40" as="geometry" />
        </mxCell>
        <mxCell id="qTDeloOCW2t7TZ8c1QXG-52" value="h" style="whiteSpace=wrap;html=1;aspect=fixed;fontSize=15;fontStyle=0;fillColor=#f5f5f5;strokeColor=#666666;textOpacity=40;fontColor=#333333;opacity=40;" vertex="1" parent="1">
          <mxGeometry x="90" y="480" width="40" height="40" as="geometry" />
        </mxCell>
        <mxCell id="qTDeloOCW2t7TZ8c1QXG-53" value="e" style="whiteSpace=wrap;html=1;aspect=fixed;fontSize=15;fontStyle=0;fillColor=#f5f5f5;strokeColor=#666666;textOpacity=40;fontColor=#333333;opacity=40;" vertex="1" parent="1">
          <mxGeometry x="140" y="480" width="40" height="40" as="geometry" />
        </mxCell>
        <mxCell id="qTDeloOCW2t7TZ8c1QXG-54" value="l" style="whiteSpace=wrap;html=1;aspect=fixed;fontSize=15;fontStyle=0;fillColor=#d5e8d4;strokeColor=#82b366;" vertex="1" parent="1">
          <mxGeometry x="190" y="480" width="40" height="40" as="geometry" />
        </mxCell>
        <mxCell id="qTDeloOCW2t7TZ8c1QXG-55" value="l" style="whiteSpace=wrap;html=1;aspect=fixed;fontSize=15;fontStyle=0;fillColor=#d5e8d4;strokeColor=#82b366;" vertex="1" parent="1">
          <mxGeometry x="240" y="480" width="40" height="40" as="geometry" />
        </mxCell>
        <mxCell id="qTDeloOCW2t7TZ8c1QXG-56" value="o" style="whiteSpace=wrap;html=1;aspect=fixed;fontSize=15;fontStyle=0;fillColor=#d5e8d4;strokeColor=#82b366;" vertex="1" parent="1">
          <mxGeometry x="290" y="480" width="40" height="40" as="geometry" />
        </mxCell>
        <mxCell id="qTDeloOCW2t7TZ8c1QXG-57" value="&amp;nbsp;" style="whiteSpace=wrap;html=1;aspect=fixed;fontSize=15;fontStyle=0;fillColor=#d5e8d4;strokeColor=#82b366;" vertex="1" parent="1">
          <mxGeometry x="340" y="480" width="40" height="40" as="geometry" />
        </mxCell>
        <mxCell id="qTDeloOCW2t7TZ8c1QXG-58" value="w" style="whiteSpace=wrap;html=1;aspect=fixed;fontSize=15;fontStyle=0;fillColor=#d5e8d4;strokeColor=#82b366;" vertex="1" parent="1">
          <mxGeometry x="390" y="480" width="40" height="40" as="geometry" />
        </mxCell>
        <mxCell id="qTDeloOCW2t7TZ8c1QXG-59" value="o" style="whiteSpace=wrap;html=1;aspect=fixed;fontSize=15;fontStyle=0;fillColor=#d5e8d4;strokeColor=#82b366;" vertex="1" parent="1">
          <mxGeometry x="440" y="480" width="40" height="40" as="geometry" />
        </mxCell>
        <mxCell id="qTDeloOCW2t7TZ8c1QXG-60" value="r" style="whiteSpace=wrap;html=1;aspect=fixed;fontSize=15;fontStyle=0;fillColor=#f5f5f5;strokeColor=#666666;fontColor=#333333;opacity=40;textOpacity=40;" vertex="1" parent="1">
          <mxGeometry x="490" y="480" width="40" height="40" as="geometry" />
        </mxCell>
        <mxCell id="qTDeloOCW2t7TZ8c1QXG-61" value="l" style="whiteSpace=wrap;html=1;aspect=fixed;fontSize=15;fontStyle=0;fillColor=#f5f5f5;strokeColor=#666666;fontColor=#333333;opacity=40;textOpacity=40;" vertex="1" parent="1">
          <mxGeometry x="540" y="480" width="40" height="40" as="geometry" />
        </mxCell>
        <mxCell id="qTDeloOCW2t7TZ8c1QXG-62" value="d" style="whiteSpace=wrap;html=1;aspect=fixed;fontSize=15;fontStyle=0;fillColor=#f5f5f5;strokeColor=#666666;fontColor=#333333;opacity=40;textOpacity=40;" vertex="1" parent="1">
          <mxGeometry x="590" y="480" width="40" height="40" as="geometry" />
        </mxCell>
        <mxCell id="qTDeloOCW2t7TZ8c1QXG-63" value="Element" style="text;html=1;strokeColor=none;fillColor=none;align=center;verticalAlign=middle;whiteSpace=wrap;rounded=0;fontStyle=1" vertex="1" parent="1">
          <mxGeometry y="480" width="60" height="40" as="geometry" />
        </mxCell>
        <mxCell id="qTDeloOCW2t7TZ8c1QXG-64" value="Index" style="text;html=1;strokeColor=none;fillColor=none;align=center;verticalAlign=middle;whiteSpace=wrap;rounded=0;fontStyle=2" vertex="1" parent="1">
          <mxGeometry y="520" width="60" height="40" as="geometry" />
        </mxCell>
        <mxCell id="qTDeloOCW2t7TZ8c1QXG-65" value="0" style="text;html=1;align=center;verticalAlign=middle;whiteSpace=wrap;rounded=0;fontStyle=2;textOpacity=40;opacity=40;" vertex="1" parent="1">
          <mxGeometry x="90" y="520" width="40" height="40" as="geometry" />
        </mxCell>
        <mxCell id="qTDeloOCW2t7TZ8c1QXG-66" value="1" style="text;html=1;align=center;verticalAlign=middle;whiteSpace=wrap;rounded=0;fontStyle=2;textOpacity=40;opacity=40;" vertex="1" parent="1">
          <mxGeometry x="140" y="520" width="40" height="40" as="geometry" />
        </mxCell>
        <mxCell id="qTDeloOCW2t7TZ8c1QXG-67" value="2" style="text;html=1;strokeColor=none;fillColor=none;align=center;verticalAlign=middle;whiteSpace=wrap;rounded=0;fontStyle=2" vertex="1" parent="1">
          <mxGeometry x="190" y="520" width="40" height="40" as="geometry" />
        </mxCell>
        <mxCell id="qTDeloOCW2t7TZ8c1QXG-68" value="3" style="text;html=1;strokeColor=none;fillColor=none;align=center;verticalAlign=middle;whiteSpace=wrap;rounded=0;fontStyle=2" vertex="1" parent="1">
          <mxGeometry x="240" y="520" width="40" height="40" as="geometry" />
        </mxCell>
        <mxCell id="qTDeloOCW2t7TZ8c1QXG-69" value="4" style="text;html=1;strokeColor=none;fillColor=none;align=center;verticalAlign=middle;whiteSpace=wrap;rounded=0;fontStyle=2" vertex="1" parent="1">
          <mxGeometry x="290" y="520" width="40" height="40" as="geometry" />
        </mxCell>
        <mxCell id="qTDeloOCW2t7TZ8c1QXG-70" value="5" style="text;html=1;strokeColor=none;fillColor=none;align=center;verticalAlign=middle;whiteSpace=wrap;rounded=0;fontStyle=2" vertex="1" parent="1">
          <mxGeometry x="340" y="520" width="40" height="40" as="geometry" />
        </mxCell>
        <mxCell id="qTDeloOCW2t7TZ8c1QXG-71" value="6" style="text;html=1;strokeColor=none;fillColor=none;align=center;verticalAlign=middle;whiteSpace=wrap;rounded=0;fontStyle=2" vertex="1" parent="1">
          <mxGeometry x="390" y="520" width="40" height="40" as="geometry" />
        </mxCell>
        <mxCell id="qTDeloOCW2t7TZ8c1QXG-72" value="7" style="text;html=1;strokeColor=none;fillColor=none;align=center;verticalAlign=middle;whiteSpace=wrap;rounded=0;fontStyle=2" vertex="1" parent="1">
          <mxGeometry x="440" y="520" width="40" height="40" as="geometry" />
        </mxCell>
        <mxCell id="qTDeloOCW2t7TZ8c1QXG-73" value="8" style="text;html=1;align=center;verticalAlign=middle;whiteSpace=wrap;rounded=0;fontStyle=2;opacity=40;textOpacity=40;" vertex="1" parent="1">
          <mxGeometry x="490" y="520" width="40" height="40" as="geometry" />
        </mxCell>
        <mxCell id="qTDeloOCW2t7TZ8c1QXG-74" value="9" style="text;html=1;align=center;verticalAlign=middle;whiteSpace=wrap;rounded=0;fontStyle=2;opacity=40;textOpacity=40;" vertex="1" parent="1">
          <mxGeometry x="540" y="520" width="40" height="40" as="geometry" />
        </mxCell>
        <mxCell id="qTDeloOCW2t7TZ8c1QXG-75" value="10" style="text;html=1;align=center;verticalAlign=middle;whiteSpace=wrap;rounded=0;fontStyle=2;opacity=40;textOpacity=40;" vertex="1" parent="1">
          <mxGeometry x="590" y="520" width="40" height="40" as="geometry" />
        </mxCell>
        <mxCell id="qTDeloOCW2t7TZ8c1QXG-78" value="h" style="whiteSpace=wrap;html=1;aspect=fixed;fontSize=15;fontStyle=0;fillColor=#d5e8d4;strokeColor=#82b366;" vertex="1" parent="1">
          <mxGeometry x="90" y="600" width="40" height="40" as="geometry" />
        </mxCell>
        <mxCell id="qTDeloOCW2t7TZ8c1QXG-79" value="e" style="whiteSpace=wrap;html=1;aspect=fixed;fontSize=15;fontStyle=0;fillColor=#d5e8d4;strokeColor=#82b366;" vertex="1" parent="1">
          <mxGeometry x="140" y="600" width="40" height="40" as="geometry" />
        </mxCell>
        <mxCell id="qTDeloOCW2t7TZ8c1QXG-80" value="l" style="whiteSpace=wrap;html=1;aspect=fixed;fontSize=15;fontStyle=0;fillColor=#d5e8d4;strokeColor=#82b366;" vertex="1" parent="1">
          <mxGeometry x="190" y="600" width="40" height="40" as="geometry" />
        </mxCell>
        <mxCell id="qTDeloOCW2t7TZ8c1QXG-81" value="l" style="whiteSpace=wrap;html=1;aspect=fixed;fontSize=15;fontStyle=0;fillColor=#d5e8d4;strokeColor=#82b366;" vertex="1" parent="1">
          <mxGeometry x="240" y="600" width="40" height="40" as="geometry" />
        </mxCell>
        <mxCell id="qTDeloOCW2t7TZ8c1QXG-82" value="o" style="whiteSpace=wrap;html=1;aspect=fixed;fontSize=15;fontStyle=0;fillColor=#d5e8d4;strokeColor=#82b366;" vertex="1" parent="1">
          <mxGeometry x="290" y="600" width="40" height="40" as="geometry" />
        </mxCell>
        <mxCell id="qTDeloOCW2t7TZ8c1QXG-83" value="&amp;nbsp;" style="whiteSpace=wrap;html=1;aspect=fixed;fontSize=15;fontStyle=0;fillColor=#f5f5f5;strokeColor=#666666;textOpacity=40;opacity=40;fontColor=#333333;" vertex="1" parent="1">
          <mxGeometry x="340" y="600" width="40" height="40" as="geometry" />
        </mxCell>
        <mxCell id="qTDeloOCW2t7TZ8c1QXG-84" value="w" style="whiteSpace=wrap;html=1;aspect=fixed;fontSize=15;fontStyle=0;fillColor=#f5f5f5;strokeColor=#666666;textOpacity=40;opacity=40;fontColor=#333333;" vertex="1" parent="1">
          <mxGeometry x="390" y="600" width="40" height="40" as="geometry" />
        </mxCell>
        <mxCell id="qTDeloOCW2t7TZ8c1QXG-85" value="o" style="whiteSpace=wrap;html=1;aspect=fixed;fontSize=15;fontStyle=0;fillColor=#f5f5f5;strokeColor=#666666;textOpacity=40;opacity=40;fontColor=#333333;" vertex="1" parent="1">
          <mxGeometry x="440" y="600" width="40" height="40" as="geometry" />
        </mxCell>
        <mxCell id="qTDeloOCW2t7TZ8c1QXG-86" value="r" style="whiteSpace=wrap;html=1;aspect=fixed;fontSize=15;fontStyle=0;fillColor=#f5f5f5;strokeColor=#666666;textOpacity=40;opacity=40;fontColor=#333333;" vertex="1" parent="1">
          <mxGeometry x="490" y="600" width="40" height="40" as="geometry" />
        </mxCell>
        <mxCell id="qTDeloOCW2t7TZ8c1QXG-87" value="l" style="whiteSpace=wrap;html=1;aspect=fixed;fontSize=15;fontStyle=0;fillColor=#f5f5f5;strokeColor=#666666;textOpacity=40;opacity=40;fontColor=#333333;" vertex="1" parent="1">
          <mxGeometry x="540" y="600" width="40" height="40" as="geometry" />
        </mxCell>
        <mxCell id="qTDeloOCW2t7TZ8c1QXG-88" value="d" style="whiteSpace=wrap;html=1;aspect=fixed;fontSize=15;fontStyle=0;fillColor=#f5f5f5;strokeColor=#666666;textOpacity=40;opacity=40;fontColor=#333333;" vertex="1" parent="1">
          <mxGeometry x="590" y="600" width="40" height="40" as="geometry" />
        </mxCell>
        <mxCell id="qTDeloOCW2t7TZ8c1QXG-89" value="Element" style="text;html=1;strokeColor=none;fillColor=none;align=center;verticalAlign=middle;whiteSpace=wrap;rounded=0;fontStyle=1" vertex="1" parent="1">
          <mxGeometry y="600" width="60" height="40" as="geometry" />
        </mxCell>
        <mxCell id="qTDeloOCW2t7TZ8c1QXG-90" value="Index" style="text;html=1;strokeColor=none;fillColor=none;align=center;verticalAlign=middle;whiteSpace=wrap;rounded=0;fontStyle=2" vertex="1" parent="1">
          <mxGeometry y="640" width="60" height="40" as="geometry" />
        </mxCell>
        <mxCell id="qTDeloOCW2t7TZ8c1QXG-91" value="0" style="text;html=1;strokeColor=none;fillColor=none;align=center;verticalAlign=middle;whiteSpace=wrap;rounded=0;fontStyle=2" vertex="1" parent="1">
          <mxGeometry x="90" y="640" width="40" height="40" as="geometry" />
        </mxCell>
        <mxCell id="qTDeloOCW2t7TZ8c1QXG-92" value="1" style="text;html=1;strokeColor=none;fillColor=none;align=center;verticalAlign=middle;whiteSpace=wrap;rounded=0;fontStyle=2" vertex="1" parent="1">
          <mxGeometry x="140" y="640" width="40" height="40" as="geometry" />
        </mxCell>
        <mxCell id="qTDeloOCW2t7TZ8c1QXG-93" value="2" style="text;html=1;strokeColor=none;fillColor=none;align=center;verticalAlign=middle;whiteSpace=wrap;rounded=0;fontStyle=2" vertex="1" parent="1">
          <mxGeometry x="190" y="640" width="40" height="40" as="geometry" />
        </mxCell>
        <mxCell id="qTDeloOCW2t7TZ8c1QXG-94" value="3" style="text;html=1;strokeColor=none;fillColor=none;align=center;verticalAlign=middle;whiteSpace=wrap;rounded=0;fontStyle=2" vertex="1" parent="1">
          <mxGeometry x="240" y="640" width="40" height="40" as="geometry" />
        </mxCell>
        <mxCell id="qTDeloOCW2t7TZ8c1QXG-95" value="4" style="text;html=1;strokeColor=none;fillColor=none;align=center;verticalAlign=middle;whiteSpace=wrap;rounded=0;fontStyle=2" vertex="1" parent="1">
          <mxGeometry x="290" y="640" width="40" height="40" as="geometry" />
        </mxCell>
        <mxCell id="qTDeloOCW2t7TZ8c1QXG-96" value="5" style="text;html=1;strokeColor=none;fillColor=none;align=center;verticalAlign=middle;whiteSpace=wrap;rounded=0;fontStyle=2;textOpacity=40;opacity=40;" vertex="1" parent="1">
          <mxGeometry x="340" y="640" width="40" height="40" as="geometry" />
        </mxCell>
        <mxCell id="qTDeloOCW2t7TZ8c1QXG-97" value="6" style="text;html=1;strokeColor=none;fillColor=none;align=center;verticalAlign=middle;whiteSpace=wrap;rounded=0;fontStyle=2;textOpacity=40;opacity=40;" vertex="1" parent="1">
          <mxGeometry x="390" y="640" width="40" height="40" as="geometry" />
        </mxCell>
        <mxCell id="qTDeloOCW2t7TZ8c1QXG-98" value="7" style="text;html=1;strokeColor=none;fillColor=none;align=center;verticalAlign=middle;whiteSpace=wrap;rounded=0;fontStyle=2;textOpacity=40;opacity=40;" vertex="1" parent="1">
          <mxGeometry x="440" y="640" width="40" height="40" as="geometry" />
        </mxCell>
        <mxCell id="qTDeloOCW2t7TZ8c1QXG-99" value="8" style="text;html=1;strokeColor=none;fillColor=none;align=center;verticalAlign=middle;whiteSpace=wrap;rounded=0;fontStyle=2;textOpacity=40;opacity=40;" vertex="1" parent="1">
          <mxGeometry x="490" y="640" width="40" height="40" as="geometry" />
        </mxCell>
        <mxCell id="qTDeloOCW2t7TZ8c1QXG-100" value="9" style="text;html=1;strokeColor=none;fillColor=none;align=center;verticalAlign=middle;whiteSpace=wrap;rounded=0;fontStyle=2;textOpacity=40;opacity=40;" vertex="1" parent="1">
          <mxGeometry x="540" y="640" width="40" height="40" as="geometry" />
        </mxCell>
        <mxCell id="qTDeloOCW2t7TZ8c1QXG-101" value="10" style="text;html=1;strokeColor=none;fillColor=none;align=center;verticalAlign=middle;whiteSpace=wrap;rounded=0;fontStyle=2;textOpacity=40;opacity=40;" vertex="1" parent="1">
          <mxGeometry x="590" y="640" width="40" height="40" as="geometry" />
        </mxCell>
        <mxCell id="qTDeloOCW2t7TZ8c1QXG-103" value="h" style="whiteSpace=wrap;html=1;aspect=fixed;fontSize=15;fontStyle=0;fillColor=#f5f5f5;strokeColor=#666666;opacity=40;textOpacity=40;fontColor=#333333;" vertex="1" parent="1">
          <mxGeometry x="90" y="720" width="40" height="40" as="geometry" />
        </mxCell>
        <mxCell id="qTDeloOCW2t7TZ8c1QXG-104" value="e" style="whiteSpace=wrap;html=1;aspect=fixed;fontSize=15;fontStyle=0;fillColor=#f5f5f5;strokeColor=#666666;opacity=40;textOpacity=40;fontColor=#333333;" vertex="1" parent="1">
          <mxGeometry x="140" y="720" width="40" height="40" as="geometry" />
        </mxCell>
        <mxCell id="qTDeloOCW2t7TZ8c1QXG-105" value="l" style="whiteSpace=wrap;html=1;aspect=fixed;fontSize=15;fontStyle=0;fillColor=#f5f5f5;strokeColor=#666666;opacity=40;textOpacity=40;fontColor=#333333;" vertex="1" parent="1">
          <mxGeometry x="190" y="720" width="40" height="40" as="geometry" />
        </mxCell>
        <mxCell id="qTDeloOCW2t7TZ8c1QXG-106" value="l" style="whiteSpace=wrap;html=1;aspect=fixed;fontSize=15;fontStyle=0;fillColor=#f5f5f5;strokeColor=#666666;opacity=40;textOpacity=40;fontColor=#333333;" vertex="1" parent="1">
          <mxGeometry x="240" y="720" width="40" height="40" as="geometry" />
        </mxCell>
        <mxCell id="qTDeloOCW2t7TZ8c1QXG-107" value="o" style="whiteSpace=wrap;html=1;aspect=fixed;fontSize=15;fontStyle=0;fillColor=#d5e8d4;strokeColor=#82b366;" vertex="1" parent="1">
          <mxGeometry x="290" y="720" width="40" height="40" as="geometry" />
        </mxCell>
        <mxCell id="qTDeloOCW2t7TZ8c1QXG-108" value="&amp;nbsp;" style="whiteSpace=wrap;html=1;aspect=fixed;fontSize=15;fontStyle=0;fillColor=#d5e8d4;strokeColor=#82b366;" vertex="1" parent="1">
          <mxGeometry x="340" y="720" width="40" height="40" as="geometry" />
        </mxCell>
        <mxCell id="qTDeloOCW2t7TZ8c1QXG-109" value="w" style="whiteSpace=wrap;html=1;aspect=fixed;fontSize=15;fontStyle=0;fillColor=#d5e8d4;strokeColor=#82b366;" vertex="1" parent="1">
          <mxGeometry x="390" y="720" width="40" height="40" as="geometry" />
        </mxCell>
        <mxCell id="qTDeloOCW2t7TZ8c1QXG-110" value="o" style="whiteSpace=wrap;html=1;aspect=fixed;fontSize=15;fontStyle=0;fillColor=#d5e8d4;strokeColor=#82b366;" vertex="1" parent="1">
          <mxGeometry x="440" y="720" width="40" height="40" as="geometry" />
        </mxCell>
        <mxCell id="qTDeloOCW2t7TZ8c1QXG-111" value="r" style="whiteSpace=wrap;html=1;aspect=fixed;fontSize=15;fontStyle=0;fillColor=#d5e8d4;strokeColor=#82b366;" vertex="1" parent="1">
          <mxGeometry x="490" y="720" width="40" height="40" as="geometry" />
        </mxCell>
        <mxCell id="qTDeloOCW2t7TZ8c1QXG-112" value="l" style="whiteSpace=wrap;html=1;aspect=fixed;fontSize=15;fontStyle=0;fillColor=#d5e8d4;strokeColor=#82b366;" vertex="1" parent="1">
          <mxGeometry x="540" y="720" width="40" height="40" as="geometry" />
        </mxCell>
        <mxCell id="qTDeloOCW2t7TZ8c1QXG-113" value="d" style="whiteSpace=wrap;html=1;aspect=fixed;fontSize=15;fontStyle=0;fillColor=#d5e8d4;strokeColor=#82b366;" vertex="1" parent="1">
          <mxGeometry x="590" y="720" width="40" height="40" as="geometry" />
        </mxCell>
        <mxCell id="qTDeloOCW2t7TZ8c1QXG-114" value="Element" style="text;html=1;strokeColor=none;fillColor=none;align=center;verticalAlign=middle;whiteSpace=wrap;rounded=0;fontStyle=1" vertex="1" parent="1">
          <mxGeometry y="720" width="60" height="40" as="geometry" />
        </mxCell>
        <mxCell id="qTDeloOCW2t7TZ8c1QXG-115" value="Index" style="text;html=1;strokeColor=none;fillColor=none;align=center;verticalAlign=middle;whiteSpace=wrap;rounded=0;fontStyle=2" vertex="1" parent="1">
          <mxGeometry y="760" width="60" height="40" as="geometry" />
        </mxCell>
        <mxCell id="qTDeloOCW2t7TZ8c1QXG-116" value="0" style="text;html=1;strokeColor=none;fillColor=none;align=center;verticalAlign=middle;whiteSpace=wrap;rounded=0;fontStyle=2;opacity=40;textOpacity=40;" vertex="1" parent="1">
          <mxGeometry x="90" y="760" width="40" height="40" as="geometry" />
        </mxCell>
        <mxCell id="qTDeloOCW2t7TZ8c1QXG-117" value="1" style="text;html=1;strokeColor=none;fillColor=none;align=center;verticalAlign=middle;whiteSpace=wrap;rounded=0;fontStyle=2;opacity=40;textOpacity=40;" vertex="1" parent="1">
          <mxGeometry x="140" y="760" width="40" height="40" as="geometry" />
        </mxCell>
        <mxCell id="qTDeloOCW2t7TZ8c1QXG-118" value="2" style="text;html=1;strokeColor=none;fillColor=none;align=center;verticalAlign=middle;whiteSpace=wrap;rounded=0;fontStyle=2;opacity=40;textOpacity=40;" vertex="1" parent="1">
          <mxGeometry x="190" y="760" width="40" height="40" as="geometry" />
        </mxCell>
        <mxCell id="qTDeloOCW2t7TZ8c1QXG-119" value="3" style="text;html=1;strokeColor=none;fillColor=none;align=center;verticalAlign=middle;whiteSpace=wrap;rounded=0;fontStyle=2;opacity=40;textOpacity=40;" vertex="1" parent="1">
          <mxGeometry x="240" y="760" width="40" height="40" as="geometry" />
        </mxCell>
        <mxCell id="qTDeloOCW2t7TZ8c1QXG-120" value="4" style="text;html=1;strokeColor=none;fillColor=none;align=center;verticalAlign=middle;whiteSpace=wrap;rounded=0;fontStyle=2" vertex="1" parent="1">
          <mxGeometry x="290" y="760" width="40" height="40" as="geometry" />
        </mxCell>
        <mxCell id="qTDeloOCW2t7TZ8c1QXG-121" value="5" style="text;html=1;strokeColor=none;fillColor=none;align=center;verticalAlign=middle;whiteSpace=wrap;rounded=0;fontStyle=2" vertex="1" parent="1">
          <mxGeometry x="340" y="760" width="40" height="40" as="geometry" />
        </mxCell>
        <mxCell id="qTDeloOCW2t7TZ8c1QXG-122" value="6" style="text;html=1;strokeColor=none;fillColor=none;align=center;verticalAlign=middle;whiteSpace=wrap;rounded=0;fontStyle=2" vertex="1" parent="1">
          <mxGeometry x="390" y="760" width="40" height="40" as="geometry" />
        </mxCell>
        <mxCell id="qTDeloOCW2t7TZ8c1QXG-123" value="7" style="text;html=1;strokeColor=none;fillColor=none;align=center;verticalAlign=middle;whiteSpace=wrap;rounded=0;fontStyle=2" vertex="1" parent="1">
          <mxGeometry x="440" y="760" width="40" height="40" as="geometry" />
        </mxCell>
        <mxCell id="qTDeloOCW2t7TZ8c1QXG-124" value="8" style="text;html=1;strokeColor=none;fillColor=none;align=center;verticalAlign=middle;whiteSpace=wrap;rounded=0;fontStyle=2" vertex="1" parent="1">
          <mxGeometry x="490" y="760" width="40" height="40" as="geometry" />
        </mxCell>
        <mxCell id="qTDeloOCW2t7TZ8c1QXG-125" value="9" style="text;html=1;strokeColor=none;fillColor=none;align=center;verticalAlign=middle;whiteSpace=wrap;rounded=0;fontStyle=2" vertex="1" parent="1">
          <mxGeometry x="540" y="760" width="40" height="40" as="geometry" />
        </mxCell>
        <mxCell id="qTDeloOCW2t7TZ8c1QXG-126" value="10" style="text;html=1;strokeColor=none;fillColor=none;align=center;verticalAlign=middle;whiteSpace=wrap;rounded=0;fontStyle=2" vertex="1" parent="1">
          <mxGeometry x="590" y="760" width="40" height="40" as="geometry" />
        </mxCell>
        <mxCell id="qTDeloOCW2t7TZ8c1QXG-127" value="h" style="whiteSpace=wrap;html=1;aspect=fixed;fontSize=15;fontStyle=0;opacity=40;textOpacity=40;fillColor=#f5f5f5;fontColor=#333333;strokeColor=#666666;" vertex="1" parent="1">
          <mxGeometry x="90" y="840" width="40" height="40" as="geometry" />
        </mxCell>
        <mxCell id="qTDeloOCW2t7TZ8c1QXG-128" value="e" style="whiteSpace=wrap;html=1;aspect=fixed;fontSize=15;fontStyle=0;opacity=40;textOpacity=40;fillColor=#f5f5f5;fontColor=#333333;strokeColor=#666666;" vertex="1" parent="1">
          <mxGeometry x="140" y="840" width="40" height="40" as="geometry" />
        </mxCell>
        <mxCell id="qTDeloOCW2t7TZ8c1QXG-129" value="l" style="whiteSpace=wrap;html=1;aspect=fixed;fontSize=15;fontStyle=0;opacity=40;textOpacity=40;fillColor=#f5f5f5;fontColor=#333333;strokeColor=#666666;" vertex="1" parent="1">
          <mxGeometry x="190" y="840" width="40" height="40" as="geometry" />
        </mxCell>
        <mxCell id="qTDeloOCW2t7TZ8c1QXG-130" value="l" style="whiteSpace=wrap;html=1;aspect=fixed;fontSize=15;fontStyle=0;fillColor=#d5e8d4;strokeColor=#82b366;" vertex="1" parent="1">
          <mxGeometry x="240" y="840" width="40" height="40" as="geometry" />
        </mxCell>
        <mxCell id="qTDeloOCW2t7TZ8c1QXG-131" value="o" style="whiteSpace=wrap;html=1;aspect=fixed;fontSize=15;fontStyle=0;fillColor=#d5e8d4;strokeColor=#82b366;" vertex="1" parent="1">
          <mxGeometry x="290" y="840" width="40" height="40" as="geometry" />
        </mxCell>
        <mxCell id="qTDeloOCW2t7TZ8c1QXG-132" value="&amp;nbsp;" style="whiteSpace=wrap;html=1;aspect=fixed;fontSize=15;fontStyle=0;fillColor=#d5e8d4;strokeColor=#82b366;" vertex="1" parent="1">
          <mxGeometry x="340" y="840" width="40" height="40" as="geometry" />
        </mxCell>
        <mxCell id="qTDeloOCW2t7TZ8c1QXG-134" value="o" style="whiteSpace=wrap;html=1;aspect=fixed;fontSize=15;fontStyle=0;opacity=40;textOpacity=40;fillColor=#f5f5f5;fontColor=#333333;strokeColor=#666666;" vertex="1" parent="1">
          <mxGeometry x="440" y="840" width="40" height="40" as="geometry" />
        </mxCell>
        <mxCell id="qTDeloOCW2t7TZ8c1QXG-135" value="r" style="whiteSpace=wrap;html=1;aspect=fixed;fontSize=15;fontStyle=0;opacity=40;textOpacity=40;fillColor=#f5f5f5;fontColor=#333333;strokeColor=#666666;" vertex="1" parent="1">
          <mxGeometry x="490" y="840" width="40" height="40" as="geometry" />
        </mxCell>
        <mxCell id="qTDeloOCW2t7TZ8c1QXG-136" value="l" style="whiteSpace=wrap;html=1;aspect=fixed;fontSize=15;fontStyle=0;opacity=40;textOpacity=40;fillColor=#f5f5f5;fontColor=#333333;strokeColor=#666666;" vertex="1" parent="1">
          <mxGeometry x="540" y="840" width="40" height="40" as="geometry" />
        </mxCell>
        <mxCell id="qTDeloOCW2t7TZ8c1QXG-137" value="d" style="whiteSpace=wrap;html=1;aspect=fixed;fontSize=15;fontStyle=0;opacity=40;textOpacity=40;fillColor=#f5f5f5;fontColor=#333333;strokeColor=#666666;" vertex="1" parent="1">
          <mxGeometry x="590" y="840" width="40" height="40" as="geometry" />
        </mxCell>
        <mxCell id="qTDeloOCW2t7TZ8c1QXG-138" value="Element" style="text;html=1;strokeColor=none;fillColor=none;align=center;verticalAlign=middle;whiteSpace=wrap;rounded=0;fontStyle=1" vertex="1" parent="1">
          <mxGeometry y="840" width="60" height="40" as="geometry" />
        </mxCell>
        <mxCell id="qTDeloOCW2t7TZ8c1QXG-139" value="Index" style="text;html=1;strokeColor=none;fillColor=none;align=center;verticalAlign=middle;whiteSpace=wrap;rounded=0;fontStyle=2" vertex="1" parent="1">
          <mxGeometry y="880" width="60" height="40" as="geometry" />
        </mxCell>
        <mxCell id="qTDeloOCW2t7TZ8c1QXG-140" value="0" style="text;html=1;strokeColor=none;fillColor=none;align=center;verticalAlign=middle;whiteSpace=wrap;rounded=0;fontStyle=2;opacity=40;textOpacity=40;" vertex="1" parent="1">
          <mxGeometry x="90" y="880" width="40" height="40" as="geometry" />
        </mxCell>
        <mxCell id="qTDeloOCW2t7TZ8c1QXG-141" value="1" style="text;html=1;strokeColor=none;fillColor=none;align=center;verticalAlign=middle;whiteSpace=wrap;rounded=0;fontStyle=2;opacity=40;textOpacity=40;" vertex="1" parent="1">
          <mxGeometry x="140" y="880" width="40" height="40" as="geometry" />
        </mxCell>
        <mxCell id="qTDeloOCW2t7TZ8c1QXG-142" value="2" style="text;html=1;strokeColor=none;fillColor=none;align=center;verticalAlign=middle;whiteSpace=wrap;rounded=0;fontStyle=2;opacity=40;textOpacity=40;" vertex="1" parent="1">
          <mxGeometry x="190" y="880" width="40" height="40" as="geometry" />
        </mxCell>
        <mxCell id="qTDeloOCW2t7TZ8c1QXG-143" value="3" style="text;html=1;strokeColor=none;fillColor=none;align=center;verticalAlign=middle;whiteSpace=wrap;rounded=0;fontStyle=2" vertex="1" parent="1">
          <mxGeometry x="240" y="880" width="40" height="40" as="geometry" />
        </mxCell>
        <mxCell id="qTDeloOCW2t7TZ8c1QXG-144" value="4" style="text;html=1;strokeColor=none;fillColor=none;align=center;verticalAlign=middle;whiteSpace=wrap;rounded=0;fontStyle=2" vertex="1" parent="1">
          <mxGeometry x="290" y="880" width="40" height="40" as="geometry" />
        </mxCell>
        <mxCell id="qTDeloOCW2t7TZ8c1QXG-145" value="5" style="text;html=1;strokeColor=none;fillColor=none;align=center;verticalAlign=middle;whiteSpace=wrap;rounded=0;fontStyle=2" vertex="1" parent="1">
          <mxGeometry x="340" y="880" width="40" height="40" as="geometry" />
        </mxCell>
        <mxCell id="qTDeloOCW2t7TZ8c1QXG-147" value="7" style="text;html=1;strokeColor=none;fillColor=none;align=center;verticalAlign=middle;whiteSpace=wrap;rounded=0;fontStyle=2;opacity=40;textOpacity=40;" vertex="1" parent="1">
          <mxGeometry x="440" y="880" width="40" height="40" as="geometry" />
        </mxCell>
        <mxCell id="qTDeloOCW2t7TZ8c1QXG-148" value="8" style="text;html=1;strokeColor=none;fillColor=none;align=center;verticalAlign=middle;whiteSpace=wrap;rounded=0;fontStyle=2;opacity=40;textOpacity=40;" vertex="1" parent="1">
          <mxGeometry x="490" y="880" width="40" height="40" as="geometry" />
        </mxCell>
        <mxCell id="qTDeloOCW2t7TZ8c1QXG-149" value="9" style="text;html=1;strokeColor=none;fillColor=none;align=center;verticalAlign=middle;whiteSpace=wrap;rounded=0;fontStyle=2;opacity=40;textOpacity=40;" vertex="1" parent="1">
          <mxGeometry x="540" y="880" width="40" height="40" as="geometry" />
        </mxCell>
        <mxCell id="qTDeloOCW2t7TZ8c1QXG-150" value="10" style="text;html=1;strokeColor=none;fillColor=none;align=center;verticalAlign=middle;whiteSpace=wrap;rounded=0;fontStyle=2;opacity=40;textOpacity=40;" vertex="1" parent="1">
          <mxGeometry x="590" y="880" width="40" height="40" as="geometry" />
        </mxCell>
        <mxCell id="qTDeloOCW2t7TZ8c1QXG-151" value="w" style="whiteSpace=wrap;html=1;aspect=fixed;fontSize=15;fontStyle=0;fillColor=#d5e8d4;strokeColor=#82b366;" vertex="1" parent="1">
          <mxGeometry x="390" y="840" width="40" height="40" as="geometry" />
        </mxCell>
        <mxCell id="qTDeloOCW2t7TZ8c1QXG-152" value="6" style="text;html=1;strokeColor=none;fillColor=none;align=center;verticalAlign=middle;whiteSpace=wrap;rounded=0;fontStyle=2" vertex="1" parent="1">
          <mxGeometry x="390" y="880" width="40" height="40" as="geometry" />
        </mxCell>
        <mxCell id="qTDeloOCW2t7TZ8c1QXG-153" value="Step" style="text;html=1;strokeColor=none;fillColor=none;align=center;verticalAlign=middle;whiteSpace=wrap;rounded=0;fontStyle=2" vertex="1" parent="1">
          <mxGeometry x="200" y="920" width="60" height="40" as="geometry" />
        </mxCell>
        <mxCell id="qTDeloOCW2t7TZ8c1QXG-154" value="1" style="text;html=1;strokeColor=none;fillColor=none;align=center;verticalAlign=middle;whiteSpace=wrap;rounded=0;fontStyle=2" vertex="1" parent="1">
          <mxGeometry x="270" y="930" width="30" height="40" as="geometry" />
        </mxCell>
        <mxCell id="qTDeloOCW2t7TZ8c1QXG-155" value="1" style="text;html=1;strokeColor=none;fillColor=none;align=center;verticalAlign=middle;whiteSpace=wrap;rounded=0;fontStyle=2" vertex="1" parent="1">
          <mxGeometry x="320" y="930" width="30" height="40" as="geometry" />
        </mxCell>
        <mxCell id="qTDeloOCW2t7TZ8c1QXG-156" value="1" style="text;html=1;strokeColor=none;fillColor=none;align=center;verticalAlign=middle;whiteSpace=wrap;rounded=0;fontStyle=2" vertex="1" parent="1">
          <mxGeometry x="370" y="930" width="30" height="40" as="geometry" />
        </mxCell>
        <mxCell id="qTDeloOCW2t7TZ8c1QXG-157" value="" style="endArrow=classic;startArrow=classic;html=1;rounded=0;fillColor=#dae8fc;strokeColor=#6c8ebf;" edge="1" parent="1">
          <mxGeometry width="50" height="50" relative="1" as="geometry">
            <mxPoint x="270" y="930" as="sourcePoint" />
            <mxPoint x="300" y="930" as="targetPoint" />
          </mxGeometry>
        </mxCell>
        <mxCell id="qTDeloOCW2t7TZ8c1QXG-158" value="" style="endArrow=classic;startArrow=classic;html=1;rounded=0;fillColor=#dae8fc;strokeColor=#6c8ebf;" edge="1" parent="1">
          <mxGeometry width="50" height="50" relative="1" as="geometry">
            <mxPoint x="320" y="930" as="sourcePoint" />
            <mxPoint x="350" y="930" as="targetPoint" />
          </mxGeometry>
        </mxCell>
        <mxCell id="qTDeloOCW2t7TZ8c1QXG-159" value="" style="endArrow=classic;startArrow=classic;html=1;rounded=0;fillColor=#dae8fc;strokeColor=#6c8ebf;" edge="1" parent="1">
          <mxGeometry width="50" height="50" relative="1" as="geometry">
            <mxPoint x="370" y="930" as="sourcePoint" />
            <mxPoint x="400" y="930" as="targetPoint" />
          </mxGeometry>
        </mxCell>
        <mxCell id="qTDeloOCW2t7TZ8c1QXG-160" value="h" style="whiteSpace=wrap;html=1;aspect=fixed;fontSize=15;fontStyle=0;fillColor=#f5f5f5;strokeColor=#666666;textOpacity=40;opacity=40;fontColor=#333333;" vertex="1" parent="1">
          <mxGeometry x="90" y="1000" width="40" height="40" as="geometry" />
        </mxCell>
        <mxCell id="qTDeloOCW2t7TZ8c1QXG-161" value="e" style="whiteSpace=wrap;html=1;aspect=fixed;fontSize=15;fontStyle=0;fillColor=#f5f5f5;strokeColor=#666666;textOpacity=40;opacity=40;fontColor=#333333;" vertex="1" parent="1">
          <mxGeometry x="140" y="1000" width="40" height="40" as="geometry" />
        </mxCell>
        <mxCell id="qTDeloOCW2t7TZ8c1QXG-162" value="l" style="whiteSpace=wrap;html=1;aspect=fixed;fontSize=15;fontStyle=0;fillColor=#d5e8d4;strokeColor=#82b366;" vertex="1" parent="1">
          <mxGeometry x="190" y="1000" width="40" height="40" as="geometry" />
        </mxCell>
        <mxCell id="qTDeloOCW2t7TZ8c1QXG-163" value="l" style="whiteSpace=wrap;html=1;aspect=fixed;fontSize=15;fontStyle=0;fillColor=#f5f5f5;strokeColor=#666666;textOpacity=40;opacity=40;fontColor=#333333;" vertex="1" parent="1">
          <mxGeometry x="240" y="1000" width="40" height="40" as="geometry" />
        </mxCell>
        <mxCell id="qTDeloOCW2t7TZ8c1QXG-164" value="o" style="whiteSpace=wrap;html=1;aspect=fixed;fontSize=15;fontStyle=0;fillColor=#d5e8d4;strokeColor=#82b366;" vertex="1" parent="1">
          <mxGeometry x="290" y="1000" width="40" height="40" as="geometry" />
        </mxCell>
        <mxCell id="qTDeloOCW2t7TZ8c1QXG-165" value="&amp;nbsp;" style="whiteSpace=wrap;html=1;aspect=fixed;fontSize=15;fontStyle=0;fillColor=#f5f5f5;strokeColor=#666666;textOpacity=40;opacity=40;fontColor=#333333;" vertex="1" parent="1">
          <mxGeometry x="340" y="1000" width="40" height="40" as="geometry" />
        </mxCell>
        <mxCell id="qTDeloOCW2t7TZ8c1QXG-166" value="w" style="whiteSpace=wrap;html=1;aspect=fixed;fontSize=15;fontStyle=0;fillColor=#d5e8d4;strokeColor=#82b366;" vertex="1" parent="1">
          <mxGeometry x="390" y="1000" width="40" height="40" as="geometry" />
        </mxCell>
        <mxCell id="qTDeloOCW2t7TZ8c1QXG-167" value="o" style="whiteSpace=wrap;html=1;aspect=fixed;fontSize=15;fontStyle=0;fillColor=#f5f5f5;strokeColor=#666666;textOpacity=40;opacity=40;fontColor=#333333;" vertex="1" parent="1">
          <mxGeometry x="440" y="1000" width="40" height="40" as="geometry" />
        </mxCell>
        <mxCell id="qTDeloOCW2t7TZ8c1QXG-168" value="r" style="whiteSpace=wrap;html=1;aspect=fixed;fontSize=15;fontStyle=0;fillColor=#d5e8d4;strokeColor=#82b366;" vertex="1" parent="1">
          <mxGeometry x="490" y="1000" width="40" height="40" as="geometry" />
        </mxCell>
        <mxCell id="qTDeloOCW2t7TZ8c1QXG-169" value="l" style="whiteSpace=wrap;html=1;aspect=fixed;fontSize=15;fontStyle=0;fillColor=#f5f5f5;strokeColor=#666666;textOpacity=40;opacity=40;fontColor=#333333;" vertex="1" parent="1">
          <mxGeometry x="540" y="1000" width="40" height="40" as="geometry" />
        </mxCell>
        <mxCell id="qTDeloOCW2t7TZ8c1QXG-170" value="d" style="whiteSpace=wrap;html=1;aspect=fixed;fontSize=15;fontStyle=0;fillColor=#f5f5f5;strokeColor=#666666;textOpacity=40;opacity=40;fontColor=#333333;" vertex="1" parent="1">
          <mxGeometry x="590" y="1000" width="40" height="40" as="geometry" />
        </mxCell>
        <mxCell id="qTDeloOCW2t7TZ8c1QXG-171" value="Element" style="text;html=1;strokeColor=none;fillColor=none;align=center;verticalAlign=middle;whiteSpace=wrap;rounded=0;fontStyle=1" vertex="1" parent="1">
          <mxGeometry y="1000" width="60" height="40" as="geometry" />
        </mxCell>
        <mxCell id="qTDeloOCW2t7TZ8c1QXG-172" value="Index" style="text;html=1;strokeColor=none;fillColor=none;align=center;verticalAlign=middle;whiteSpace=wrap;rounded=0;fontStyle=2" vertex="1" parent="1">
          <mxGeometry y="1040" width="60" height="40" as="geometry" />
        </mxCell>
        <mxCell id="qTDeloOCW2t7TZ8c1QXG-173" value="0" style="text;html=1;strokeColor=none;fillColor=none;align=center;verticalAlign=middle;whiteSpace=wrap;rounded=0;fontStyle=2;textOpacity=40;opacity=40;" vertex="1" parent="1">
          <mxGeometry x="90" y="1040" width="40" height="40" as="geometry" />
        </mxCell>
        <mxCell id="qTDeloOCW2t7TZ8c1QXG-174" value="1" style="text;html=1;strokeColor=none;fillColor=none;align=center;verticalAlign=middle;whiteSpace=wrap;rounded=0;fontStyle=2;textOpacity=40;opacity=40;" vertex="1" parent="1">
          <mxGeometry x="140" y="1040" width="40" height="40" as="geometry" />
        </mxCell>
        <mxCell id="qTDeloOCW2t7TZ8c1QXG-175" value="2" style="text;html=1;strokeColor=none;fillColor=none;align=center;verticalAlign=middle;whiteSpace=wrap;rounded=0;fontStyle=2" vertex="1" parent="1">
          <mxGeometry x="190" y="1040" width="40" height="40" as="geometry" />
        </mxCell>
        <mxCell id="qTDeloOCW2t7TZ8c1QXG-176" value="3" style="text;html=1;strokeColor=none;fillColor=none;align=center;verticalAlign=middle;whiteSpace=wrap;rounded=0;fontStyle=2;textOpacity=40;opacity=40;" vertex="1" parent="1">
          <mxGeometry x="240" y="1040" width="40" height="40" as="geometry" />
        </mxCell>
        <mxCell id="qTDeloOCW2t7TZ8c1QXG-177" value="4" style="text;html=1;strokeColor=none;fillColor=none;align=center;verticalAlign=middle;whiteSpace=wrap;rounded=0;fontStyle=2" vertex="1" parent="1">
          <mxGeometry x="290" y="1040" width="40" height="40" as="geometry" />
        </mxCell>
        <mxCell id="qTDeloOCW2t7TZ8c1QXG-178" value="5" style="text;html=1;strokeColor=none;fillColor=none;align=center;verticalAlign=middle;whiteSpace=wrap;rounded=0;fontStyle=2;textOpacity=40;opacity=40;" vertex="1" parent="1">
          <mxGeometry x="340" y="1040" width="40" height="40" as="geometry" />
        </mxCell>
        <mxCell id="qTDeloOCW2t7TZ8c1QXG-179" value="6" style="text;html=1;strokeColor=none;fillColor=none;align=center;verticalAlign=middle;whiteSpace=wrap;rounded=0;fontStyle=2" vertex="1" parent="1">
          <mxGeometry x="390" y="1040" width="40" height="40" as="geometry" />
        </mxCell>
        <mxCell id="qTDeloOCW2t7TZ8c1QXG-180" value="7" style="text;html=1;strokeColor=none;fillColor=none;align=center;verticalAlign=middle;whiteSpace=wrap;rounded=0;fontStyle=2;textOpacity=40;opacity=40;" vertex="1" parent="1">
          <mxGeometry x="440" y="1040" width="40" height="40" as="geometry" />
        </mxCell>
        <mxCell id="qTDeloOCW2t7TZ8c1QXG-181" value="8" style="text;html=1;strokeColor=none;fillColor=none;align=center;verticalAlign=middle;whiteSpace=wrap;rounded=0;fontStyle=2" vertex="1" parent="1">
          <mxGeometry x="490" y="1040" width="40" height="40" as="geometry" />
        </mxCell>
        <mxCell id="qTDeloOCW2t7TZ8c1QXG-182" value="9" style="text;html=1;strokeColor=none;fillColor=none;align=center;verticalAlign=middle;whiteSpace=wrap;rounded=0;fontStyle=2;textOpacity=40;opacity=40;" vertex="1" parent="1">
          <mxGeometry x="540" y="1040" width="40" height="40" as="geometry" />
        </mxCell>
        <mxCell id="qTDeloOCW2t7TZ8c1QXG-183" value="10" style="text;html=1;strokeColor=none;fillColor=none;align=center;verticalAlign=middle;whiteSpace=wrap;rounded=0;fontStyle=2;textOpacity=40;opacity=40;" vertex="1" parent="1">
          <mxGeometry x="590" y="1040" width="40" height="40" as="geometry" />
        </mxCell>
        <mxCell id="qTDeloOCW2t7TZ8c1QXG-184" value="Step" style="text;html=1;strokeColor=none;fillColor=none;align=center;verticalAlign=middle;whiteSpace=wrap;rounded=0;fontStyle=2" vertex="1" parent="1">
          <mxGeometry x="150" y="1080" width="60" height="40" as="geometry" />
        </mxCell>
        <mxCell id="qTDeloOCW2t7TZ8c1QXG-185" value="2" style="text;html=1;strokeColor=none;fillColor=none;align=center;verticalAlign=middle;whiteSpace=wrap;rounded=0;fontStyle=2" vertex="1" parent="1">
          <mxGeometry x="245" y="1090" width="30" height="40" as="geometry" />
        </mxCell>
        <mxCell id="qTDeloOCW2t7TZ8c1QXG-188" value="" style="endArrow=classic;startArrow=classic;html=1;rounded=0;fillColor=#dae8fc;strokeColor=#6c8ebf;" edge="1" parent="1">
          <mxGeometry width="50" height="50" relative="1" as="geometry">
            <mxPoint x="220" y="1090" as="sourcePoint" />
            <mxPoint x="300" y="1090" as="targetPoint" />
          </mxGeometry>
        </mxCell>
        <mxCell id="qTDeloOCW2t7TZ8c1QXG-191" value="2" style="text;html=1;strokeColor=none;fillColor=none;align=center;verticalAlign=middle;whiteSpace=wrap;rounded=0;fontStyle=2" vertex="1" parent="1">
          <mxGeometry x="345" y="1090" width="30" height="40" as="geometry" />
        </mxCell>
        <mxCell id="qTDeloOCW2t7TZ8c1QXG-192" value="" style="endArrow=classic;startArrow=classic;html=1;rounded=0;fillColor=#dae8fc;strokeColor=#6c8ebf;" edge="1" parent="1">
          <mxGeometry width="50" height="50" relative="1" as="geometry">
            <mxPoint x="320" y="1090" as="sourcePoint" />
            <mxPoint x="400" y="1090" as="targetPoint" />
          </mxGeometry>
        </mxCell>
        <mxCell id="qTDeloOCW2t7TZ8c1QXG-193" value="2" style="text;html=1;strokeColor=none;fillColor=none;align=center;verticalAlign=middle;whiteSpace=wrap;rounded=0;fontStyle=2" vertex="1" parent="1">
          <mxGeometry x="445" y="1090" width="30" height="40" as="geometry" />
        </mxCell>
        <mxCell id="qTDeloOCW2t7TZ8c1QXG-194" value="" style="endArrow=classic;startArrow=classic;html=1;rounded=0;fillColor=#dae8fc;strokeColor=#6c8ebf;" edge="1" parent="1">
          <mxGeometry width="50" height="50" relative="1" as="geometry">
            <mxPoint x="420" y="1090" as="sourcePoint" />
            <mxPoint x="500" y="1090" as="targetPoint" />
          </mxGeometry>
        </mxCell>
        <mxCell id="qTDeloOCW2t7TZ8c1QXG-195" value="h" style="whiteSpace=wrap;html=1;aspect=fixed;fontSize=15;fontStyle=0;fillColor=#d5e8d4;strokeColor=#82b366;" vertex="1" parent="1">
          <mxGeometry x="90" y="1160" width="40" height="40" as="geometry" />
        </mxCell>
        <mxCell id="qTDeloOCW2t7TZ8c1QXG-196" value="e" style="whiteSpace=wrap;html=1;aspect=fixed;fontSize=15;fontStyle=0;fillColor=#f5f5f5;strokeColor=#666666;opacity=40;textOpacity=40;fontColor=#333333;" vertex="1" parent="1">
          <mxGeometry x="140" y="1160" width="40" height="40" as="geometry" />
        </mxCell>
        <mxCell id="qTDeloOCW2t7TZ8c1QXG-197" value="l" style="whiteSpace=wrap;html=1;aspect=fixed;fontSize=15;fontStyle=0;fillColor=#d5e8d4;strokeColor=#82b366;" vertex="1" parent="1">
          <mxGeometry x="190" y="1160" width="40" height="40" as="geometry" />
        </mxCell>
        <mxCell id="qTDeloOCW2t7TZ8c1QXG-198" value="l" style="whiteSpace=wrap;html=1;aspect=fixed;fontSize=15;fontStyle=0;fillColor=#f5f5f5;strokeColor=#666666;opacity=40;textOpacity=40;fontColor=#333333;" vertex="1" parent="1">
          <mxGeometry x="240" y="1160" width="40" height="40" as="geometry" />
        </mxCell>
        <mxCell id="qTDeloOCW2t7TZ8c1QXG-199" value="o" style="whiteSpace=wrap;html=1;aspect=fixed;fontSize=15;fontStyle=0;fillColor=#d5e8d4;strokeColor=#82b366;" vertex="1" parent="1">
          <mxGeometry x="290" y="1160" width="40" height="40" as="geometry" />
        </mxCell>
        <mxCell id="qTDeloOCW2t7TZ8c1QXG-200" value="&amp;nbsp;" style="whiteSpace=wrap;html=1;aspect=fixed;fontSize=15;fontStyle=0;fillColor=#f5f5f5;strokeColor=#666666;opacity=40;textOpacity=40;fontColor=#333333;" vertex="1" parent="1">
          <mxGeometry x="340" y="1160" width="40" height="40" as="geometry" />
        </mxCell>
        <mxCell id="qTDeloOCW2t7TZ8c1QXG-201" value="w" style="whiteSpace=wrap;html=1;aspect=fixed;fontSize=15;fontStyle=0;fillColor=#d5e8d4;strokeColor=#82b366;" vertex="1" parent="1">
          <mxGeometry x="390" y="1160" width="40" height="40" as="geometry" />
        </mxCell>
        <mxCell id="qTDeloOCW2t7TZ8c1QXG-202" value="o" style="whiteSpace=wrap;html=1;aspect=fixed;fontSize=15;fontStyle=0;fillColor=#f5f5f5;strokeColor=#666666;opacity=40;textOpacity=40;fontColor=#333333;" vertex="1" parent="1">
          <mxGeometry x="440" y="1160" width="40" height="40" as="geometry" />
        </mxCell>
        <mxCell id="qTDeloOCW2t7TZ8c1QXG-203" value="r" style="whiteSpace=wrap;html=1;aspect=fixed;fontSize=15;fontStyle=0;fillColor=#d5e8d4;strokeColor=#82b366;" vertex="1" parent="1">
          <mxGeometry x="490" y="1160" width="40" height="40" as="geometry" />
        </mxCell>
        <mxCell id="qTDeloOCW2t7TZ8c1QXG-204" value="l" style="whiteSpace=wrap;html=1;aspect=fixed;fontSize=15;fontStyle=0;fillColor=#f5f5f5;strokeColor=#666666;opacity=40;textOpacity=40;fontColor=#333333;" vertex="1" parent="1">
          <mxGeometry x="540" y="1160" width="40" height="40" as="geometry" />
        </mxCell>
        <mxCell id="qTDeloOCW2t7TZ8c1QXG-205" value="d" style="whiteSpace=wrap;html=1;aspect=fixed;fontSize=15;fontStyle=0;fillColor=#d5e8d4;strokeColor=#82b366;" vertex="1" parent="1">
          <mxGeometry x="590" y="1160" width="40" height="40" as="geometry" />
        </mxCell>
        <mxCell id="qTDeloOCW2t7TZ8c1QXG-206" value="Element" style="text;html=1;strokeColor=none;fillColor=none;align=center;verticalAlign=middle;whiteSpace=wrap;rounded=0;fontStyle=1" vertex="1" parent="1">
          <mxGeometry y="1160" width="60" height="40" as="geometry" />
        </mxCell>
        <mxCell id="qTDeloOCW2t7TZ8c1QXG-207" value="Index" style="text;html=1;strokeColor=none;fillColor=none;align=center;verticalAlign=middle;whiteSpace=wrap;rounded=0;fontStyle=2" vertex="1" parent="1">
          <mxGeometry y="1200" width="60" height="40" as="geometry" />
        </mxCell>
        <mxCell id="qTDeloOCW2t7TZ8c1QXG-208" value="0" style="text;html=1;strokeColor=none;fillColor=none;align=center;verticalAlign=middle;whiteSpace=wrap;rounded=0;fontStyle=2" vertex="1" parent="1">
          <mxGeometry x="90" y="1200" width="40" height="40" as="geometry" />
        </mxCell>
        <mxCell id="qTDeloOCW2t7TZ8c1QXG-209" value="1" style="text;html=1;strokeColor=none;fillColor=none;align=center;verticalAlign=middle;whiteSpace=wrap;rounded=0;fontStyle=2;opacity=40;textOpacity=40;" vertex="1" parent="1">
          <mxGeometry x="140" y="1200" width="40" height="40" as="geometry" />
        </mxCell>
        <mxCell id="qTDeloOCW2t7TZ8c1QXG-210" value="2" style="text;html=1;strokeColor=none;fillColor=none;align=center;verticalAlign=middle;whiteSpace=wrap;rounded=0;fontStyle=2" vertex="1" parent="1">
          <mxGeometry x="190" y="1200" width="40" height="40" as="geometry" />
        </mxCell>
        <mxCell id="qTDeloOCW2t7TZ8c1QXG-211" value="3" style="text;html=1;strokeColor=none;fillColor=none;align=center;verticalAlign=middle;whiteSpace=wrap;rounded=0;fontStyle=2;opacity=40;textOpacity=40;" vertex="1" parent="1">
          <mxGeometry x="240" y="1200" width="40" height="40" as="geometry" />
        </mxCell>
        <mxCell id="qTDeloOCW2t7TZ8c1QXG-212" value="4" style="text;html=1;strokeColor=none;fillColor=none;align=center;verticalAlign=middle;whiteSpace=wrap;rounded=0;fontStyle=2" vertex="1" parent="1">
          <mxGeometry x="290" y="1200" width="40" height="40" as="geometry" />
        </mxCell>
        <mxCell id="qTDeloOCW2t7TZ8c1QXG-213" value="5" style="text;html=1;strokeColor=none;fillColor=none;align=center;verticalAlign=middle;whiteSpace=wrap;rounded=0;fontStyle=2;opacity=40;textOpacity=40;" vertex="1" parent="1">
          <mxGeometry x="340" y="1200" width="40" height="40" as="geometry" />
        </mxCell>
        <mxCell id="qTDeloOCW2t7TZ8c1QXG-214" value="6" style="text;html=1;strokeColor=none;fillColor=none;align=center;verticalAlign=middle;whiteSpace=wrap;rounded=0;fontStyle=2" vertex="1" parent="1">
          <mxGeometry x="390" y="1200" width="40" height="40" as="geometry" />
        </mxCell>
        <mxCell id="qTDeloOCW2t7TZ8c1QXG-215" value="7" style="text;html=1;strokeColor=none;fillColor=none;align=center;verticalAlign=middle;whiteSpace=wrap;rounded=0;fontStyle=2;opacity=40;textOpacity=40;" vertex="1" parent="1">
          <mxGeometry x="440" y="1200" width="40" height="40" as="geometry" />
        </mxCell>
        <mxCell id="qTDeloOCW2t7TZ8c1QXG-216" value="8" style="text;html=1;strokeColor=none;fillColor=none;align=center;verticalAlign=middle;whiteSpace=wrap;rounded=0;fontStyle=2" vertex="1" parent="1">
          <mxGeometry x="490" y="1200" width="40" height="40" as="geometry" />
        </mxCell>
        <mxCell id="qTDeloOCW2t7TZ8c1QXG-217" value="9" style="text;html=1;strokeColor=none;fillColor=none;align=center;verticalAlign=middle;whiteSpace=wrap;rounded=0;fontStyle=2;opacity=40;textOpacity=40;" vertex="1" parent="1">
          <mxGeometry x="540" y="1200" width="40" height="40" as="geometry" />
        </mxCell>
        <mxCell id="qTDeloOCW2t7TZ8c1QXG-218" value="10" style="text;html=1;strokeColor=none;fillColor=none;align=center;verticalAlign=middle;whiteSpace=wrap;rounded=0;fontStyle=2" vertex="1" parent="1">
          <mxGeometry x="590" y="1200" width="40" height="40" as="geometry" />
        </mxCell>
        <mxCell id="qTDeloOCW2t7TZ8c1QXG-219" value="Step" style="text;html=1;strokeColor=none;fillColor=none;align=center;verticalAlign=middle;whiteSpace=wrap;rounded=0;fontStyle=2" vertex="1" parent="1">
          <mxGeometry x="50" y="1240" width="60" height="40" as="geometry" />
        </mxCell>
        <mxCell id="qTDeloOCW2t7TZ8c1QXG-220" value="2" style="text;html=1;strokeColor=none;fillColor=none;align=center;verticalAlign=middle;whiteSpace=wrap;rounded=0;fontStyle=2" vertex="1" parent="1">
          <mxGeometry x="145" y="1250" width="30" height="40" as="geometry" />
        </mxCell>
        <mxCell id="qTDeloOCW2t7TZ8c1QXG-221" value="" style="endArrow=classic;startArrow=classic;html=1;rounded=0;fillColor=#dae8fc;strokeColor=#6c8ebf;" edge="1" parent="1">
          <mxGeometry width="50" height="50" relative="1" as="geometry">
            <mxPoint x="120" y="1250" as="sourcePoint" />
            <mxPoint x="200" y="1250" as="targetPoint" />
          </mxGeometry>
        </mxCell>
        <mxCell id="qTDeloOCW2t7TZ8c1QXG-222" value="2" style="text;html=1;strokeColor=none;fillColor=none;align=center;verticalAlign=middle;whiteSpace=wrap;rounded=0;fontStyle=2" vertex="1" parent="1">
          <mxGeometry x="245" y="1250" width="30" height="40" as="geometry" />
        </mxCell>
        <mxCell id="qTDeloOCW2t7TZ8c1QXG-223" value="" style="endArrow=classic;startArrow=classic;html=1;rounded=0;fillColor=#dae8fc;strokeColor=#6c8ebf;" edge="1" parent="1">
          <mxGeometry width="50" height="50" relative="1" as="geometry">
            <mxPoint x="220" y="1250" as="sourcePoint" />
            <mxPoint x="300" y="1250" as="targetPoint" />
          </mxGeometry>
        </mxCell>
        <mxCell id="qTDeloOCW2t7TZ8c1QXG-224" value="2" style="text;html=1;strokeColor=none;fillColor=none;align=center;verticalAlign=middle;whiteSpace=wrap;rounded=0;fontStyle=2" vertex="1" parent="1">
          <mxGeometry x="345" y="1250" width="30" height="40" as="geometry" />
        </mxCell>
        <mxCell id="qTDeloOCW2t7TZ8c1QXG-225" value="" style="endArrow=classic;startArrow=classic;html=1;rounded=0;fillColor=#dae8fc;strokeColor=#6c8ebf;" edge="1" parent="1">
          <mxGeometry width="50" height="50" relative="1" as="geometry">
            <mxPoint x="320" y="1250" as="sourcePoint" />
            <mxPoint x="400" y="1250" as="targetPoint" />
          </mxGeometry>
        </mxCell>
        <mxCell id="qTDeloOCW2t7TZ8c1QXG-226" value="2" style="text;html=1;strokeColor=none;fillColor=none;align=center;verticalAlign=middle;whiteSpace=wrap;rounded=0;fontStyle=2" vertex="1" parent="1">
          <mxGeometry x="445" y="1250" width="30" height="40" as="geometry" />
        </mxCell>
        <mxCell id="qTDeloOCW2t7TZ8c1QXG-227" value="" style="endArrow=classic;startArrow=classic;html=1;rounded=0;fillColor=#dae8fc;strokeColor=#6c8ebf;" edge="1" parent="1">
          <mxGeometry width="50" height="50" relative="1" as="geometry">
            <mxPoint x="420" y="1250" as="sourcePoint" />
            <mxPoint x="500" y="1250" as="targetPoint" />
          </mxGeometry>
        </mxCell>
        <mxCell id="qTDeloOCW2t7TZ8c1QXG-228" value="2" style="text;html=1;strokeColor=none;fillColor=none;align=center;verticalAlign=middle;whiteSpace=wrap;rounded=0;fontStyle=2" vertex="1" parent="1">
          <mxGeometry x="545" y="1250" width="30" height="40" as="geometry" />
        </mxCell>
        <mxCell id="qTDeloOCW2t7TZ8c1QXG-229" value="" style="endArrow=classic;startArrow=classic;html=1;rounded=0;fillColor=#dae8fc;strokeColor=#6c8ebf;" edge="1" parent="1">
          <mxGeometry width="50" height="50" relative="1" as="geometry">
            <mxPoint x="520" y="1250" as="sourcePoint" />
            <mxPoint x="600" y="1250" as="targetPoint" />
          </mxGeometry>
        </mxCell>
      </root>
    </mxGraphModel>
  </diagram>
</mxfile>
